<svg xmlns="http://www.w3.org/2000/svg" width="350.256" height="39.216" viewBox="0 0 350.256 39.216"><path d="M11.232-35.424h6.336v-3.024H7.68V0h9.888V-2.976H11.232v-14.16h6.336v-2.976H11.232ZM44.3-38.448,40.416-12.24,36.432-38.448h-3.5V0H36.48V-15.024L39.216,0h2.3l2.736-15.024V0h3.552V-38.448Zm30.24,0L70.656-12.24,66.672-38.448h-3.5V0H66.72V-15.024L69.456,0h2.3L74.5-15.024V0h3.552V-38.448ZM96.96-35.424H103.3v-3.024H93.408V0H103.3V-2.976H96.96v-14.16H103.3v-2.976H96.96ZM130.176-38.4h-11.52v2.976h3.984V0h3.552V-35.424h3.984Zm26.88,0h-11.52v2.976h3.984V0h3.552V-35.424h3.984Zm41.28,23.664h-3.6V-4.512a1.647,1.647,0,0,1-.576,1.392,2.846,2.846,0,0,1-1.632.432c-1.392,0-2.064-.624-2.064-1.824V-34.224c0-1.2.672-1.824,2.064-1.824a2.846,2.846,0,0,1,1.632.432,1.647,1.647,0,0,1,.576,1.392v10.608h3.6V-34.224a3.513,3.513,0,0,0-1.056-2.592,6.677,6.677,0,0,0-2.4-1.632,4.077,4.077,0,0,0-1.152-.24,10.047,10.047,0,0,0-1.152-.048,9.9,9.9,0,0,0-3.12.528A4.39,4.39,0,0,0,187.1-36.1c-.048.144-.144.288-.192.432a1.725,1.725,0,0,0-.1.528V-4.464a4.233,4.233,0,0,0,.48,2.16,3.868,3.868,0,0,0,1.3,1.344,5.184,5.184,0,0,0,1.824.72,10.263,10.263,0,0,0,2.16.24,7.308,7.308,0,0,0,2.016-.288,6.644,6.644,0,0,0,1.872-.864,4.15,4.15,0,0,0,1.344-1.392,3.592,3.592,0,0,0,.528-1.92ZM213.7-34.992V-4.32a4.233,4.233,0,0,0,.48,2.16,3.868,3.868,0,0,0,1.3,1.344A5.184,5.184,0,0,0,217.3-.1a7.849,7.849,0,0,0,2.16.24,7.308,7.308,0,0,0,2.016-.288,6.644,6.644,0,0,0,1.872-.864A4.15,4.15,0,0,0,224.688-2.4a3.592,3.592,0,0,0,.528-1.92V-34.08a3.621,3.621,0,0,0-1.056-2.64,6.545,6.545,0,0,0-2.4-1.584,4.077,4.077,0,0,0-1.152-.24,10.046,10.046,0,0,0-1.152-.048,9.675,9.675,0,0,0-3.12.528,4.39,4.39,0,0,0-2.352,2.112c-.048.144-.144.288-.192.432A1.725,1.725,0,0,0,213.7-34.992Zm7.92.912V-4.368a1.647,1.647,0,0,1-.576,1.392,2.846,2.846,0,0,1-1.632.432c-1.392,0-2.064-.624-2.064-1.824V-34.08c0-1.2.672-1.824,2.064-1.824a2.846,2.846,0,0,1,1.632.432A1.647,1.647,0,0,1,221.616-34.08Zm22.512,31.1V-38.448h-3.552V0h9.744V-2.976Zm25.1-32.448h6.336v-3.024H265.68V0h9.888V-2.976h-6.336v-14.16h6.336v-2.976h-6.336ZM304.176-25.1V-33.7a4.551,4.551,0,0,0-.528-2.208,3.87,3.87,0,0,0-1.392-1.392,6.191,6.191,0,0,0-1.92-.768,11.44,11.44,0,0,0-2.208-.192,10.955,10.955,0,0,0-2.16.192,7.063,7.063,0,0,0-2.064.768,4.143,4.143,0,0,0-1.488,1.392,4.09,4.09,0,0,0-.576,2.208,40.64,40.64,0,0,0,.24,4.512,21.373,21.373,0,0,0,.672,3.648,25.291,25.291,0,0,0,1.3,3.456q.792,1.728,1.872,3.888a35.8,35.8,0,0,1,1.584,3.456c.432,1.152.816,2.3,1.152,3.408a25.9,25.9,0,0,1,.672,3.456,32.632,32.632,0,0,1,.192,3.84,1.51,1.51,0,0,1-.672,1.44,3.748,3.748,0,0,1-1.776.384A3.243,3.243,0,0,1,295.3-2.64a1.421,1.421,0,0,1-.72-1.392V-12.72h-3.648v8.688A3.758,3.758,0,0,0,291.5-1.92,3.869,3.869,0,0,0,292.9-.528a6.474,6.474,0,0,0,1.968.768,10.552,10.552,0,0,0,2.112.24,10.955,10.955,0,0,0,2.16-.192,7.3,7.3,0,0,0,2.016-.768,4.143,4.143,0,0,0,1.488-1.392,3.812,3.812,0,0,0,.576-2.16c0-1.488-.048-2.784-.144-3.984q-.216-1.8-.576-3.456a22.334,22.334,0,0,0-1.008-3.36,38.978,38.978,0,0,0-1.68-3.648,6.149,6.149,0,0,0-.528-.96,6.149,6.149,0,0,1-.528-.96,29.2,29.2,0,0,1-2.4-6.432,28.648,28.648,0,0,1-.768-6.864,1.649,1.649,0,0,1,.672-1.488,3.243,3.243,0,0,1,1.776-.432,3.538,3.538,0,0,1,1.824.432,1.765,1.765,0,0,1,.672,1.488V-25.1Zm15.36-9.888V-4.32a4.233,4.233,0,0,0,.48,2.16,3.869,3.869,0,0,0,1.3,1.344,5.184,5.184,0,0,0,1.824.72,7.849,7.849,0,0,0,2.16.24,7.308,7.308,0,0,0,2.016-.288,6.644,6.644,0,0,0,1.872-.864A4.15,4.15,0,0,0,330.528-2.4a3.592,3.592,0,0,0,.528-1.92V-34.08A3.621,3.621,0,0,0,330-36.72a6.545,6.545,0,0,0-2.4-1.584,4.077,4.077,0,0,0-1.152-.24,10.047,10.047,0,0,0-1.152-.048,9.674,9.674,0,0,0-3.12.528,4.39,4.39,0,0,0-2.352,2.112c-.048.144-.144.288-.192.432A1.725,1.725,0,0,0,319.536-34.992Zm7.92.912V-4.368a1.647,1.647,0,0,1-.576,1.392,2.846,2.846,0,0,1-1.632.432c-1.392,0-2.064-.624-2.064-1.824V-34.08c0-1.2.672-1.824,2.064-1.824a2.846,2.846,0,0,1,1.632.432A1.647,1.647,0,0,1,327.456-34.08Zm26.928-4.368v22.176L349.92-38.448h-3.5V0h3.552V-21.072L354.432,0h3.5V-38.448Z" transform="translate(-7.68 38.736)" fill="rgba(0,0,0,0.87)"/></svg>