<?xml version="1.0" standalone="no"?>
<!DOCTYPE svg PUBLIC "-//W3C//DTD SVG 1.1//EN" "http://www.w3.org/Graphics/SVG/1.1/DTD/svg11.dtd" >
<svg xmlns="http://www.w3.org/2000/svg" xmlns:xlink="http://www.w3.org/1999/xlink" version="1.1">
<metadata>
Created by FontForge 20170731 at Mon Sep 24 16:11:52 2018
 By Aleksey,,,
Copyright (c) 2018 by Fontastica. All rights reserved.
</metadata>
<defs>
<font id="Gatsby-Normal" horiz-adv-x="560" >
  <font-face 
    font-family="Gatsby Normal"
    font-weight="400"
    font-stretch="normal"
    units-per-em="1000"
    panose-1="0 0 5 0 0 0 0 0 0 0"
    ascent="800"
    descent="-200"
    x-height="801"
    cap-height="801"
    bbox="69 -69 799 880"
    underline-thickness="50"
    underline-position="-200"
    unicode-range="U+0020-2212"
  />
<missing-glyph horiz-adv-x="1845" 
 />
    <glyph glyph-name=".notdef" horiz-adv-x="1845" 
 />
    <glyph glyph-name=".null" horiz-adv-x="0" 
 />
    <glyph glyph-name="nonmarkingreturn" horiz-adv-x="333" 
 />
    <glyph glyph-name="space" unicode=" " horiz-adv-x="300" 
 />
    <glyph glyph-name="quotedbl" unicode="&#x22;" horiz-adv-x="443" 
d="M160 748v109h58v-109h-58zM226 748v109h57v-109h-57z" />
    <glyph glyph-name="numbersign" unicode="#" horiz-adv-x="767" 
d="M607 483v-60h-121l-10 -53h109v-61h-122l-64 -309h-76l65 309h-46l-66 -309h-74l65 309h-107v61h119l11 53h-108v60h121l68 318h73l-65 -318h45l68 318h73l-65 -318h107zM354 370h46l11 53h-46z" />
    <glyph glyph-name="dollar" unicode="$" horiz-adv-x="586" 
d="M330 445q1 -1 10 -7l9 -9q17 -13 22 -20q2 -2 4.5 -5t3.5 -4t2 -2.5t3 -3t3 -2.5q11 -9 17 -20q8 -14 12 -27q6 -16 8 -29q2 -20 2 -27v-104q0 -38 -3 -77q0 -8 -1 -10q0 -3 -1 -4q-3 -14 -13 -24q-9 -9 -23 -17q-11 -6 -28 -10q-15 -5 -27 -6v-37h-74v37q-36 5 -53 14
q-21 11 -37 39q-3 4 -3 11q-2 12 -2 18q-1 6 -1 18v157h75v-164q0 -26 21 -35v323q-18 17 -33 34q-22 26 -31 41q-15 26 -23 46q-9 23 -9 47v183q0 14 10 27q17 24 37 33q21 9 49 12v37h74v-37q16 -2 32 -6q14 -4 31 -14q13 -9 24 -21q9 -14 9 -31v-185h-76v164q0 26 -20 35
v-338zM235 616q0 -20 5 -45q4 -20 16 -42v254q-21 -8 -21 -35v-132zM330 95q20 9 20 35v132q0 26 -3 46q-3 18 -17 37v-250z" />
    <glyph glyph-name="percent" unicode="%" horiz-adv-x="840" 
d="M364 563q23 -11 26 -35q2 -26 -8 -44q-11 -19 -31 -29q-22 -12 -44 0q-23 12 -26 36q-3 23 8 43q11 19 32 29t43 0zM548 326q23 -11 26 -35q2 -26 -8 -44q-11 -19 -31 -29q-22 -12 -44 0q-23 12 -26 36q-3 23 8 43q11 19 32 29t43 0zM263 151l264 495l54 -29l-264 -495z
" />
    <glyph glyph-name="ampersand" unicode="&#x26;" horiz-adv-x="608" 
d="M214 410q-2 2 -2 3q-1 1 -3 5q0 1 -1.5 3t-2.5 4q-13 27 -20 44q-10 21 -14 41q-6 26 -7 42q-2 16 -4 49v7h1v116q0 14 8 28q7 14 21 24q15 13 27 19q16 9 27 10q6 2 11 2q8 0 12 1h24q22 0 40 -7q16 -6 35 -20q15 -13 25 -31q9 -18 9 -39v-109q0 -28 -8 -55t-21 -49
q-11 -20 -31 -45q-12 -15 -36 -43q-1 -1 -3 -4q19 -33 37 -75q18 -43 30 -79q2 28 2 42v42v7h76v-13q0 -60 -4 -108q-5 -58 -23 -107q2 -7 8 -25q1 -4 4 -13.5t5 -14.5q3 -9 9 -29q3 -15 3 -26v-7h-76v6q-4 18 -7 27q-23 -20 -48 -26t-57 -6l-1 1h-2q-2 1 -6 1q-5 0 -7 1
q-26 4 -48 24q-24 19 -31 44l-1 1q-1 1 -1 3q-1 2 -1 3q-1 3 -1 6q0 2 -1 3v3v183q0 41 16 73q19 37 38 63zM269 744q-14 0 -23 -10t-9 -25v-106q0 -34 6 -67q4 -32 20 -64q20 25 42 61q19 31 19 69v107q0 15 -9 25q-10 10 -24 10h-22zM253 338q-8 -17 -12 -31
q-4 -13 -4 -33v-177q1 -1 1 -6v-2q2 -6 11 -14q10 -10 15 -10h19q9 0 18 6q6 3 16 13q7 7 13 16q1 2 2.5 4.5t2 4t1.5 3.5l2 4l-2 10q-6 21 -18 52l-11 27.5t-9 24.5q-14 32 -21 49q-14 32 -20 49q-1 1 -1 5q-2 4 -3 5z" />
    <glyph glyph-name="quotesingle" unicode="'" horiz-adv-x="378" 
d="M160 748v109h58v-109h-58z" />
    <glyph glyph-name="parenleft" unicode="(" horiz-adv-x="447" 
d="M236 58q0 -18 12 -29q11 -11 31 -11h7l1 -54h-7q-18 0 -38 3q-22 5 -37 12q-18 9 -30 24q-13 14 -14 35q-1 3 -1 10v9v692v9q0 7 1 10q1 21 14 35t30 23q14 8 37 13q20 3 38 3h7l-1 -55h-7q-43 0 -43 -39v-690z" />
    <glyph glyph-name="parenright" unicode=")" horiz-adv-x="448" 
d="M212 747q0 40 -45 40h-7l1 54h7q19 0 42 -5q19 -6 39 -17q18 -13 28 -29q11 -19 11 -42v-692q0 -24 -11 -41q-10 -17 -28 -30q-20 -11 -39 -17q-23 -5 -42 -5h-7l-1 55h7q45 0 45 39v690z" />
    <glyph glyph-name="plus" unicode="+" horiz-adv-x="676" 
d="M516 418v-61h-142v-116h-71v116h-143v61h143v117h71v-117h142z" />
    <glyph glyph-name="comma" unicode="," horiz-adv-x="463" 
d="M191 -41l-31 -7l25 19q24 17 37 38q-8 5 -14 14q-7 8 -7 19q0 22 18 32q16 10 34 10t34 -10t16 -32q0 -17 -13 -30q-17 -17 -31 -25q-19 -11 -37 -18q-17 -6 -31 -10z" />
    <glyph glyph-name="hyphen" unicode="-" horiz-adv-x="589" 
d="M160 418h269v-61h-269v61z" />
    <glyph glyph-name="slash" unicode="/" horiz-adv-x="563" 
d="M160 0l168 801h75l-168 -801h-75z" />
    <glyph glyph-name="zero" unicode="0" 
d="M160 732q0 5 2 11q0 1 2 4t2 5q17 32 49 44q33 11 65 11q15 0 24 -1q17 -2 24 -5q25 -9 50 -34q22 -22 22 -54v-620q0 -23 -11 -40q-10 -18 -28 -29q-18 -12 -39 -18t-42 -6q-22 0 -45 5q-21 4 -38 15t-27 28t-10 45v639zM325 713q0 20 -12 29q-14 9 -34 9q-43 0 -43 -38
v-619q0 -38 43 -38q21 0 34 9q12 9 12 29v619z" />
    <glyph glyph-name="one" unicode="1" horiz-adv-x="498" 
d="M267 800h71v-800h-76v733l-70 -35l-32 49z" />
    <glyph glyph-name="two" unicode="2" horiz-adv-x="561" 
d="M399 636q-5 -54 -21 -105t-39 -99q-11 -21 -31 -63q-16 -30 -30 -65q-25 -60 -32 -118q-8 -58 -10 -124h164v-62h-240v56v30q0 19 1 29q1 13 1 40q-1 18 2 40q8 53 27 101q22 53 43 96q24 47 38 78q18 38 29 74q12 41 17 78q6 41 6 88q0 20 -12 29t-32 9t-32 -9t-12 -29
v-164h-76v183q0 5 2 11q0 2 2 5t2 4q17 32 49 44q33 11 65 11q33 0 66 -11q31 -10 48 -44q0 -1 2 -4t2 -5q2 -6 2 -11v-20q0 -24 1 -36q0 -13 -2 -37z" />
    <glyph glyph-name="three" unicode="3" 
d="M365 431q15 -12 25 -26t10 -35v-285q0 -24 -11 -41q-10 -14 -29 -26q-15 -9 -39 -14q-19 -4 -41 -4q-24 0 -41 4q-22 5 -37 13q-19 10 -28 25q-12 17 -13 39q-1 5 -1 15v11v177h76v-190q0 -38 44 -38t44 38v274q0 14 -6 21q-6 6 -16 11q-7 2 -21 4h-21h-16q-5 -1 -15 -1
h-6v56h6h15q5 -1 16 -1q13 0 21 1q12 0 21 4q9 3 16 10q6 7 6 20v220q0 20 -12 29t-32 9q-44 0 -44 -38v-164h-76v183q0 5 2 11q0 1 2 4t2 5q17 32 49 44q33 11 65 11q5 0 27 -2q15 -1 30 -6q14 -4 28 -12q11 -6 20 -20l9 -15q6 -8 6 -20v-240q0 -17 -10 -33
q-11 -17 -25 -28z" />
    <glyph glyph-name="four" unicode="4" 
d="M325 800h75v-800h-75v338h-165v462h74v-398h91v398z" />
    <glyph glyph-name="five" unicode="5" 
d="M400 751h-164v-286h49q21 0 42 -6q23 -9 37 -19t26 -29q10 -17 10 -41v-269q0 -57 -33 -79q-32 -22 -87 -22q-23 0 -40 4q-20 3 -37 12q-18 10 -28 24q-13 16 -14 38q-1 5 -1 13v10v183h76v-190q0 -38 44 -38q21 0 32 10q12 9 12 28v280q0 18 -12 27q-14 8 -33 8h-119
v398h240v-56z" />
    <glyph glyph-name="six" unicode="6" 
d="M236 461q17 4 44 4q14 0 32 -3t36 -9q19 -9 31 -18t17 -26q4 -15 4 -37v-287q0 -24 -11 -41q-10 -14 -29 -26q-15 -9 -39 -14q-19 -4 -41 -4q-23 0 -40 4q-22 5 -37 13q-18 10 -28 24q-13 16 -14 37q-1 5 -1 13v10v631q0 5 2 11q0 1 2 4t2 5q17 32 49 44q33 11 65 11
q5 0 27 -2q15 -1 30 -6q14 -4 28 -12q11 -6 20 -20l9 -15q6 -8 6 -20v-178h-76v159q0 20 -12 29t-33 9q-43 0 -43 -38v-252zM236 94q0 -38 45 -38q43 0 43 38v277q0 21 -11 30q-11 8 -34 8q-43 0 -43 -38v-277z" />
    <glyph glyph-name="seven" unicode="7" horiz-adv-x="563" 
d="M162 800h241l-168 -800h-75l156 745h-154v55z" />
    <glyph glyph-name="eight" unicode="8" 
d="M187 432q-1 0 -1 1h-2q-3 3 -4 5q-3 3 -4 5q-2 2 -2 4l-3 3q-5 7 -7 15q-2 10 -3 17q-1 5 -1 13v10v227q0 5 2 11q0 1 2 4t2 5q17 32 49 44q33 11 65 11q5 0 27 -2q15 -1 30 -6q14 -4 28 -12q11 -6 20 -20l9 -15q6 -8 6 -20v-243q0 -14 -6 -31q-8 -18 -18 -25l-2 -2l3 -3
q10 -8 16 -19q7 -13 7 -25v-299q0 -24 -11 -41q-10 -14 -29 -26q-15 -9 -39 -14q-19 -4 -41 -4q-23 0 -40 4q-22 5 -37 13q-18 10 -28 24q-13 16 -14 37q-1 5 -1 13v10v283q0 12 9 27q9 13 18 21zM324 713q0 20 -12 29t-33 9q-43 0 -43 -38v-216q0 -20 12 -29t33 -9t32 10
q11 11 11 28v216zM236 94q0 -38 45 -38q43 0 43 38v271q0 20 -12 29t-33 9q-43 0 -43 -38v-271z" />
    <glyph glyph-name="nine" unicode="9" 
d="M324 346q-4 0 -11.5 -1t-10.5 -2q-7 -1 -22 -1q-20 0 -45 5q-21 4 -38 15t-27 28t-10 45v271v11q0 7 1 11q1 21 13 39q10 14 28 24q15 8 38 13q19 3 40 3t40 -4q23 -5 39 -13q19 -11 30 -26q11 -17 11 -41v-648q0 -13 -6 -20q-17 -33 -48 -43q-32 -12 -66 -12
q-22 0 -45 5q-21 4 -38 15q-16 10 -27 29q-10 17 -10 45v159h76v-159q0 -20 12 -29t33 -9t32 10q11 9 11 28v252zM324 713q0 21 -11 30q-11 8 -34 8q-43 0 -43 -38v-277q0 -20 12 -29t33 -9q43 0 43 38v277z" />
    <glyph glyph-name="colon" unicode=":" horiz-adv-x="421" 
d="M211 81q-17 0 -34 11t-17 31q0 21 17 32q16 10 34 10t34 -10t16 -32q0 -21 -16 -31q-17 -11 -34 -11zM211 586q-17 0 -34 11t-17 31q0 21 17 32q16 10 34 10t34 -10t16 -32q0 -21 -16 -31q-17 -11 -34 -11z" />
    <glyph glyph-name="semicolon" unicode=";" horiz-adv-x="463" 
d="M303 42q0 -17 -13 -30q-17 -17 -31 -25q-19 -11 -37 -18q-17 -6 -31 -10l-31 -7l25 19q24 17 37 38q-8 5 -14 14q-7 8 -7 19q0 22 18 32q16 10 34 10t34 -10t16 -32zM201 548q0 20 18 31q17 11 34 11q18 0 34 -10t16 -32q0 -21 -16 -31q-17 -12 -34 -12t-34 12
q-18 11 -18 31z" />
    <glyph glyph-name="equal" unicode="=" horiz-adv-x="676" 
d="M160 467h356v-61h-356v61zM160 363h356v-60h-356v60z" />
    <glyph glyph-name="question" unicode="?" 
d="M160 428v280q0 22 11 41q11 17 29 29q18 11 39 17t41 6q28 0 48 -4t43 -21q21 -18 25 -30t4 -38v-275q0 -15 -6 -27q-10 -16 -17 -23q-18 -20 -30 -37q-14 -20 -14 -45v-170h-76v179q0 25 11 45q9 17 24 35l12 15q10 14 14 21q6 10 6 23v258q0 38 -43 38q-45 0 -45 -38
v-279h-76zM294 -3q-16 0 -32 12q-17 11 -17 29q0 21 16 31t33 10q18 0 34 -10t16 -31q0 -20 -16 -30q-17 -11 -34 -11z" />
    <glyph glyph-name="at" unicode="@" horiz-adv-x="734" 
d="M389 830q34 0 67 -10q34 -11 59 -30q27 -21 43 -48q16 -28 16 -65v-505q0 -38 -21 -60q-21 -23 -63 -23q-16 0 -28 4q-16 5 -27 13q-16 -13 -34 -15q-17 -3 -39 -3q-18 0 -34 6q-15 5 -28 17q-11 9 -20 26q-8 16 -8 33v458q0 23 10 39q8 15 24 26q17 10 34 14t38 4
q36 0 64 -23q27 -22 27 -60v-454q0 -10 7 -17q6 -8 14 -8q7 0 10 6q2 6 2 17v505q0 21 -9 38q-12 19 -26 29q-15 11 -36 19q-21 6 -42 6h-44q-21 0 -41 -6q-21 -8 -37 -19q-14 -10 -26 -29q-10 -16 -10 -38v-553q0 -22 10 -38q11 -17 27 -29t36 -18q18 -7 41 -7h44
q34 0 62 16l5 3l42 -50l-7 -4q-23 -14 -49 -20t-53 -6h-44q-35 0 -66 10q-32 10 -59 31q-25 18 -43 49q-17 29 -17 63v553q0 35 17 64t42 48q28 21 60 31q31 10 66 10h44zM378 148q8 0 14 7t6 15v458q0 8 -5 16q-6 6 -15 6h-16q-8 0 -13 -6q-5 -8 -5 -16v-458q0 -8 6 -15
q4 -7 12 -7h16z" />
    <glyph glyph-name="A" unicode="A" horiz-adv-x="564" 
d="M404 0h-75l-18 168h-59l-17 -168h-75l86 801h72zM282 504l-23 -273h47z" />
    <glyph glyph-name="B" unicode="B" 
d="M160 800h114q20 0 45 -5q19 -4 40 -16q17 -10 30 -29q11 -19 11 -44v-251q0 -17 -9 -34q-11 -18 -24 -29q19 -15 25 -28q8 -18 8 -39v-231q0 -25 -11 -44q-13 -19 -30 -29q-21 -12 -40 -16q-25 -5 -45 -5h-114v800zM234 745v-326h40q19 0 35 10t16 30v247q0 21 -15 30
q-16 9 -36 9h-40zM234 56h40q21 0 36 9t15 29v224q0 18 -14 29q-14 10 -35 10h-42v-301z" />
    <glyph glyph-name="C" unicode="C" 
d="M400 307v-214q0 -23 -11 -40q-10 -18 -28 -29q-18 -12 -39 -18t-42 -6q-22 0 -45 5q-21 4 -38 15t-27 28t-10 45v639q0 5 2 11q0 1 2 4t2 5q17 32 49 44q33 11 65 11q15 0 24 -1q17 -2 24 -5q25 -9 50 -34q22 -22 22 -54v-221h-75v221q0 20 -12 29q-14 9 -34 9
q-43 0 -43 -38v-619q0 -38 43 -38q21 0 34 9q12 9 12 29v213h75z" />
    <glyph glyph-name="D" unicode="D" 
d="M274 56q21 0 36 9t15 29v612q0 21 -15 30q-16 9 -36 9h-40v-689h40zM274 800q25 0 45 -4q19 -4 40 -16q17 -10 30 -29q11 -19 11 -45v-612q0 -25 -11 -44q-13 -19 -30 -29q-21 -12 -40 -16q-25 -5 -45 -5h-114v800h114z" />
    <glyph glyph-name="E" unicode="E" horiz-adv-x="526" 
d="M234 738v-319h132v-62h-132v-295h132v-62h-206v801h206v-63h-132z" />
    <glyph glyph-name="F" unicode="F" horiz-adv-x="526" 
d="M366 738h-132v-319h132v-62h-132v-357h-74v801h206v-63z" />
    <glyph glyph-name="G" unicode="G" 
d="M325 483v230q0 20 -12 29q-14 9 -34 9q-43 0 -43 -38v-619q0 -38 43 -38q21 0 34 9q12 9 12 29v231h-53v63h128v-295q0 -23 -11 -40q-10 -18 -28 -29q-18 -12 -39 -18t-42 -6q-22 0 -45 5q-21 4 -38 15t-27 28t-10 45v639q0 5 2 11q0 1 2 4t2 5q17 32 49 44q33 11 65 11
q15 0 24 -1q17 -2 24 -5q25 -9 50 -34q22 -22 22 -54v-230h-75z" />
    <glyph glyph-name="H" unicode="H" 
d="M326 801h74v-801h-74v322h-92v-322h-74v801h74v-416h92v416z" />
    <glyph glyph-name="I" unicode="I" horiz-adv-x="550" 
d="M160 63h78v675h-77v63h229v-63h-77v-675h76v-63h-229v63z" />
    <glyph glyph-name="J" unicode="J" 
d="M160 89v280h76v-279q0 -20 12 -29t33 -9q43 0 43 38v648h-88v-94h-76v157l240 -1v-730q0 -4 -2 -10q-1 -2 -2.5 -5.5t-1.5 -4.5q-9 -16 -21 -27q-13 -11 -27 -17q-16 -7 -32 -8q-22 -2 -34 -2q-20 0 -41 6q-22 6 -38 18q-18 11 -29 29q-12 16 -12 40z" />
    <glyph glyph-name="K" unicode="K" horiz-adv-x="579" 
d="M418 801l-135 -412l136 -389h-75l-110 322v-322h-74v801h74v-344l110 344h74z" />
    <glyph glyph-name="L" unicode="L" horiz-adv-x="523" 
d="M234 62h129v-62h-203v801h74v-739z" />
    <glyph glyph-name="M" unicode="M" horiz-adv-x="630" 
d="M397 801h73v-801h-74v313l-57 -313h-48l-57 313v-313h-74v801h73l83 -546z" />
    <glyph glyph-name="N" unicode="N" 
d="M326 801h74v-801h-73l-93 439v-439h-74v801h73l93 -462v462z" />
    <glyph glyph-name="O" unicode="O" 
d="M160 729q0 5 2 11q0 2 2 5t2 4q17 32 49 44q33 11 65 11q15 0 24 -1q17 -2 24 -5q27 -10 50 -33q22 -22 22 -55v-620q0 -23 -11 -40q-10 -18 -28 -29q-18 -12 -39 -18t-42 -6q-28 0 -45 5q-21 4 -38 15t-27 28t-10 45v639zM325 710q0 20 -12 29q-14 9 -34 9
q-43 0 -43 -38v-619q0 -38 43 -38q21 0 34 9q12 9 12 29v619z" />
    <glyph glyph-name="P" unicode="P" 
d="M160 800h114q25 0 45 -4q19 -4 40 -16q17 -10 30 -29q11 -19 11 -45v-255q0 -25 -11 -44q-13 -19 -30 -29q-21 -12 -40 -16q-25 -5 -45 -5h-40v-357h-74v800zM325 706q0 21 -15 30q-16 9 -36 9h-40v-326h40q20 0 36 11q15 10 15 29v247z" />
    <glyph glyph-name="Q" unicode="Q" horiz-adv-x="598" 
d="M438 34l-40 -43l-41 28q-17 -14 -37 -18q-18 -5 -40 -5q-5 0 -25 2q-11 1 -31 7q-11 3 -29 13q-14 8 -20 18l-9 15q-6 8 -6 20v658q0 5 2 11q0 2 2 5t2 4q16 33 49 44q30 10 65 10q19 0 42 -5q19 -6 39 -17q18 -13 28 -29q11 -19 11 -42v-620v-8q0 -2 -1 -4t-1 -4l-3 -9z
M236 90q0 -38 43 -38q15 0 23 4l-48 34l41 47l30 -23v595q0 20 -12 29q-14 9 -34 9q-43 0 -43 -38v-619z" />
    <glyph glyph-name="R" unicode="R" 
d="M400 459q0 -21 -8 -37q-9 -17 -25 -30q16 -13 25 -28q8 -18 8 -39v-325h-75v318q0 17 -14 28q-16 11 -35 11h-42v-357h-74v800h114q25 0 45 -4q19 -4 40 -16q17 -10 30 -29q11 -19 11 -45v-247zM234 745v-326h40q20 0 36 11q15 10 15 29v247q0 21 -15 30q-16 9 -36 9h-40
z" />
    <glyph glyph-name="S" unicode="S" horiz-adv-x="596" 
d="M436 523h-76v179q0 20 -14 31q-15 9 -38 9q-24 0 -37 -9q-14 -9 -14 -31q0 -78 16 -143q17 -69 50 -134q4 -10 11 -20t11 -20q21 -41 35 -76q13 -33 21 -70q7 -35 12 -72q3 -37 3 -83q0 -27 -12 -45q-13 -19 -31 -29q-22 -12 -42 -16t-45 -4q-19 0 -44 5q-21 4 -41 16
q-18 11 -29 29q-12 18 -12 44v181h76v-181q0 -22 15 -29q13 -9 37 -9q23 0 37 8t14 30q0 47 -4 80q-4 34 -14 72q-11 37 -24 71q-13 35 -33 72q-22 45 -39 81t-27 72q-9 31 -14 76t-5 94q0 26 12 46q13 19 31 29q23 12 43 16t45 4q26 0 46 -4q19 -4 40 -16q18 -11 29 -29
q11 -20 11 -46v-179z" />
    <glyph glyph-name="T" unicode="T" 
d="M400 800v-62h-83v-738h-74v738h-83v62h240z" />
    <glyph glyph-name="U" unicode="U" 
d="M400 802v-711q0 -23 -11 -40q-10 -18 -28 -29q-18 -12 -39 -18t-42 -6q-28 0 -45 5q-21 4 -38 15t-27 28t-10 45v711h76v-710q0 -38 43 -38q21 0 34 9q12 9 12 29v710h75z" />
    <glyph glyph-name="V" unicode="V" horiz-adv-x="593" 
d="M433 801l-100 -801h-73l-100 801h75l62 -498l61 498h75z" />
    <glyph glyph-name="W" unicode="W" horiz-adv-x="763" 
d="M603 801l-100 -801h-73l-49 452l-48 -452h-73l-100 801h75l58 -476l52 476h73l52 -476l59 476h74z" />
    <glyph glyph-name="X" unicode="X" horiz-adv-x="594" 
d="M434 801l-2 -8q-3 -12 -6 -25q-4 -20 -12 -48t-15 -63q-3 -11 -9 -35t-9 -35q-15 -58 -17 -69q-8 -30 -15 -59q-3 -10 -6.5 -24.5t-4.5 -17.5q-4 -15 -4 -17q0 -3 4 -16q1 -3 4.5 -17.5t6.5 -24.5q7 -29 15 -59q2 -11 17 -69l18 -69q7 -35 15 -63t12 -48q1 -5 2.5 -11
t2.5 -9.5t1 -5.5l2 -8h-74l-63 266l-62 -266h-75l2 8l2 9q3 9 5 17l12 48q3 9 8 30.5t8 32.5q5 23 17 69q9 36 18 69q3 13 8 34t6 25q9 39 10 42q4 13 4 16q0 2 -4 17q-1 3 -10 42q-1 4 -6 25t-8 34q-9 33 -18 69q-11 41 -17 70q-3 12 -8 32.5t-8 30.5l-12 48q-2 8 -5 16
l-2 9l-2 8h75l63 -267l62 267h74z" />
    <glyph glyph-name="Y" unicode="Y" horiz-adv-x="594" 
d="M434 801l-100 -450q-4 -28 -2 -57q2 -32 2 -57v-237h-74v237q0 26 2 58q2 29 -2 57l-100 449h75l62 -305l62 305h75z" />
    <glyph glyph-name="Z" unicode="Z" horiz-adv-x="562" 
d="M402 793l-155 -731h155v-62h-242l155 738h-153v63h240v-8z" />
    <glyph glyph-name="bracketleft" unicode="[" horiz-adv-x="447" 
d="M237 778v-749h50v-65h-127v879h127v-65h-50z" />
    <glyph glyph-name="backslash" unicode="\" horiz-adv-x="657" 
d="M422 0l-262 801h75l262 -801h-75z" />
    <glyph glyph-name="bracketright" unicode="]" horiz-adv-x="447" 
d="M287 842v-879h-127v65h51v749h-51v65h127z" />
    <glyph glyph-name="underscore" unicode="_" horiz-adv-x="589" 
d="M160 61h269v-61h-269v61z" />
    <glyph glyph-name="a" unicode="a" horiz-adv-x="564" 
d="M404 0h-75l-18 168h-59l-17 -168h-75l86 801h72zM282 504l-23 -273h47z" />
    <glyph glyph-name="b" unicode="b" 
d="M160 800h114q20 0 45 -5q19 -4 40 -16q17 -10 30 -29q11 -19 11 -44v-251q0 -17 -9 -34q-11 -18 -24 -29q19 -15 25 -28q8 -18 8 -39v-231q0 -25 -11 -44q-13 -19 -30 -29q-21 -12 -40 -16q-25 -5 -45 -5h-114v800zM234 745v-326h40q19 0 35 10t16 30v247q0 21 -15 30
q-16 9 -36 9h-40zM234 56h40q21 0 36 9t15 29v224q0 18 -14 29q-14 10 -35 10h-42v-301z" />
    <glyph glyph-name="c" unicode="c" 
d="M400 307v-214q0 -23 -11 -40q-10 -18 -28 -29q-18 -12 -39 -18t-42 -6q-22 0 -45 5q-21 4 -38 15t-27 28t-10 45v639q0 5 2 11q0 1 2 4t2 5q17 32 49 44q33 11 65 11q15 0 24 -1q17 -2 24 -5q25 -9 50 -34q22 -22 22 -54v-221h-75v221q0 20 -12 29q-14 9 -34 9
q-43 0 -43 -38v-619q0 -38 43 -38q21 0 34 9q12 9 12 29v213h75z" />
    <glyph glyph-name="d" unicode="d" 
d="M274 56q21 0 36 9t15 29v612q0 21 -15 30q-16 9 -36 9h-40v-689h40zM274 800q25 0 45 -4q19 -4 40 -16q17 -10 30 -29q11 -19 11 -45v-612q0 -25 -11 -44q-13 -19 -30 -29q-21 -12 -40 -16q-25 -5 -45 -5h-114v800h114z" />
    <glyph glyph-name="e" unicode="e" horiz-adv-x="526" 
d="M234 738v-319h132v-62h-132v-295h132v-62h-206v801h206v-63h-132z" />
    <glyph glyph-name="f" unicode="f" horiz-adv-x="526" 
d="M366 738h-132v-319h132v-62h-132v-357h-74v801h206v-63z" />
    <glyph glyph-name="g" unicode="g" 
d="M325 483v230q0 20 -12 29q-14 9 -34 9q-43 0 -43 -38v-619q0 -38 43 -38q21 0 34 9q12 9 12 29v231h-53v63h128v-295q0 -23 -11 -40q-10 -18 -28 -29q-18 -12 -39 -18t-42 -6q-22 0 -45 5q-21 4 -38 15t-27 28t-10 45v639q0 5 2 11q0 1 2 4t2 5q17 32 49 44q33 11 65 11
q15 0 24 -1q17 -2 24 -5q25 -9 50 -34q22 -22 22 -54v-230h-75z" />
    <glyph glyph-name="h" unicode="h" 
d="M326 801h74v-801h-74v322h-92v-322h-74v801h74v-416h92v416z" />
    <glyph glyph-name="i" unicode="i" horiz-adv-x="550" 
d="M160 63h78v675h-77v63h229v-63h-77v-675h76v-63h-229v63z" />
    <glyph glyph-name="j" unicode="j" 
d="M160 89v280h76v-279q0 -20 12 -29t33 -9q43 0 43 38v648h-88v-94h-76v157l240 -1v-730q0 -4 -2 -10q-1 -2 -2.5 -5.5t-1.5 -4.5q-9 -16 -21 -27q-13 -11 -27 -17q-16 -7 -32 -8q-22 -2 -34 -2q-20 0 -41 6q-22 6 -38 18q-18 11 -29 29q-12 16 -12 40z" />
    <glyph glyph-name="k" unicode="k" horiz-adv-x="579" 
d="M418 801l-135 -412l136 -389h-75l-110 322v-322h-74v801h74v-344l110 344h74z" />
    <glyph glyph-name="l" unicode="l" horiz-adv-x="523" 
d="M234 62h129v-62h-203v801h74v-739z" />
    <glyph glyph-name="m" unicode="m" horiz-adv-x="630" 
d="M397 801h73v-801h-74v313l-57 -313h-48l-57 313v-313h-74v801h73l83 -546z" />
    <glyph glyph-name="n" unicode="n" 
d="M326 801h74v-801h-73l-93 439v-439h-74v801h73l93 -462v462z" />
    <glyph glyph-name="o" unicode="o" 
d="M160 729q0 5 2 11q0 2 2 5t2 4q17 32 49 44q33 11 65 11q15 0 24 -1q17 -2 24 -5q27 -10 50 -33q22 -22 22 -55v-620q0 -23 -11 -40q-10 -18 -28 -29q-18 -12 -39 -18t-42 -6q-28 0 -45 5q-21 4 -38 15t-27 28t-10 45v639zM325 710q0 20 -12 29q-14 9 -34 9
q-43 0 -43 -38v-619q0 -38 43 -38q21 0 34 9q12 9 12 29v619z" />
    <glyph glyph-name="p" unicode="p" 
d="M160 800h114q25 0 45 -4q19 -4 40 -16q17 -10 30 -29q11 -19 11 -45v-255q0 -25 -11 -44q-13 -19 -30 -29q-21 -12 -40 -16q-25 -5 -45 -5h-40v-357h-74v800zM325 706q0 21 -15 30q-16 9 -36 9h-40v-326h40q20 0 36 11q15 10 15 29v247z" />
    <glyph glyph-name="q" unicode="q" horiz-adv-x="598" 
d="M438 34l-40 -43l-41 28q-17 -14 -37 -18q-18 -5 -40 -5q-5 0 -25 2q-11 1 -31 7q-11 3 -29 13q-14 8 -20 18l-9 15q-6 8 -6 20v658q0 5 2 11q0 2 2 5t2 4q16 33 49 44q30 10 65 10q19 0 42 -5q19 -6 39 -17q18 -13 28 -29q11 -19 11 -42v-620v-8q0 -2 -1 -4t-1 -4l-3 -9z
M236 90q0 -38 43 -38q15 0 23 4l-48 34l41 47l30 -23v595q0 20 -12 29q-14 9 -34 9q-43 0 -43 -38v-619z" />
    <glyph glyph-name="r" unicode="r" 
d="M400 459q0 -21 -8 -37q-9 -17 -25 -30q16 -13 25 -28q8 -18 8 -39v-325h-75v318q0 17 -14 28q-16 11 -35 11h-42v-357h-74v800h114q25 0 45 -4q19 -4 40 -16q17 -10 30 -29q11 -19 11 -45v-247zM234 745v-326h40q20 0 36 11q15 10 15 29v247q0 21 -15 30q-16 9 -36 9h-40
z" />
    <glyph glyph-name="s" unicode="s" horiz-adv-x="596" 
d="M436 523h-76v179q0 20 -14 31q-15 9 -38 9q-24 0 -37 -9q-14 -9 -14 -31q0 -78 16 -143q17 -69 50 -134q4 -10 11 -20t11 -20q21 -41 35 -76q13 -33 21 -70q7 -35 12 -72q3 -37 3 -83q0 -27 -12 -45q-13 -19 -31 -29q-22 -12 -42 -16t-45 -4q-19 0 -44 5q-21 4 -41 16
q-18 11 -29 29q-12 18 -12 44v181h76v-181q0 -22 15 -29q13 -9 37 -9q23 0 37 8t14 30q0 47 -4 80q-4 34 -14 72q-11 37 -24 71q-13 35 -33 72q-22 45 -39 81t-27 72q-9 31 -14 76t-5 94q0 26 12 46q13 19 31 29q23 12 43 16t45 4q26 0 46 -4q19 -4 40 -16q18 -11 29 -29
q11 -20 11 -46v-179z" />
    <glyph glyph-name="t" unicode="t" 
d="M400 800v-62h-83v-738h-74v738h-83v62h240z" />
    <glyph glyph-name="u" unicode="u" 
d="M400 802v-711q0 -23 -11 -40q-10 -18 -28 -29q-18 -12 -39 -18t-42 -6q-28 0 -45 5q-21 4 -38 15t-27 28t-10 45v711h76v-710q0 -38 43 -38q21 0 34 9q12 9 12 29v710h75z" />
    <glyph glyph-name="v" unicode="v" horiz-adv-x="593" 
d="M433 801l-100 -801h-73l-100 801h75l62 -498l61 498h75z" />
    <glyph glyph-name="w" unicode="w" horiz-adv-x="763" 
d="M603 801l-100 -801h-73l-49 452l-48 -452h-73l-100 801h75l58 -476l52 476h73l52 -476l59 476h74z" />
    <glyph glyph-name="x" unicode="x" horiz-adv-x="594" 
d="M434 801l-2 -8q-3 -12 -6 -25q-4 -20 -12 -48t-15 -63q-3 -11 -9 -35t-9 -35q-15 -58 -17 -69q-8 -30 -15 -59q-3 -10 -6.5 -24.5t-4.5 -17.5q-4 -15 -4 -17q0 -3 4 -16q1 -3 4.5 -17.5t6.5 -24.5q7 -29 15 -59q2 -11 17 -69l18 -69q7 -35 15 -63t12 -48q1 -5 2.5 -11
t2.5 -9.5t1 -5.5l2 -8h-74l-63 266l-62 -266h-75l2 8l2 9q3 9 5 17l12 48q3 9 8 30.5t8 32.5q5 23 17 69q9 36 18 69q3 13 8 34t6 25q9 39 10 42q4 13 4 16q0 2 -4 17q-1 3 -10 42q-1 4 -6 25t-8 34q-9 33 -18 69q-11 41 -17 70q-3 12 -8 32.5t-8 30.5l-12 48q-2 8 -5 16
l-2 9l-2 8h75l63 -267l62 267h74z" />
    <glyph glyph-name="y" unicode="y" horiz-adv-x="594" 
d="M434 801l-100 -450q-4 -28 -2 -57q2 -32 2 -57v-237h-74v237q0 26 2 58q2 29 -2 57l-100 449h75l62 -305l62 305h75z" />
    <glyph glyph-name="z" unicode="z" horiz-adv-x="562" 
d="M402 793l-155 -731h155v-62h-242l155 738h-153v63h240v-8z" />
    <glyph glyph-name="brokenbar" unicode="&#xa6;" horiz-adv-x="394" 
d="M160 484v396h74v-396h-74zM160 -69v396h74v-396h-74z" />
    <glyph glyph-name="guillemotleft" unicode="&#xab;" horiz-adv-x="628" 
d="M257 185l-97 160l97 160h77l-96 -160l97 -160h-78zM391 185l-98 160l98 160h76l-97 -160l98 -160h-77z" />
    <glyph glyph-name="periodcentered" unicode="&#xb7;" horiz-adv-x="456" 
d="M228 235q-24 0 -46 15q-22 13 -22 42q0 27 22 42t46 15t47 -15q21 -15 21 -42q0 -28 -21 -42q-23 -15 -47 -15z" />
    <glyph glyph-name="guillemotright" unicode="&#xbb;" horiz-adv-x="628" 
d="M238 505l97 -160l-97 -160h-77l96 160l-97 160h78zM370 505l98 -160l-98 -160h-75l96 160l-98 160h77z" />
    <glyph glyph-name="questiondown" unicode="&#xbf;" 
d="M264 766q17 0 33 -10t16 -31q0 -20 -16 -30q-17 -11 -33 -11t-32 11q-15 11 -15 30q0 21 15 31q14 10 32 10zM400 335v-280q0 -32 -22 -54q-23 -23 -50 -33q-10 -4 -24 -6h-24q-36 0 -66 10q-32 11 -49 44q-5 8 -5 19v294q0 13 8 27q8 15 16 24q1 2 4.5 6t5.5 6q6 8 9 11
q12 14 19 27q5 13 5 32v170h76v-179q0 -26 -11 -46q-9 -17 -24 -35q-13 -13 -22 -27q-11 -17 -11 -31v-258q0 -39 44 -39q22 0 33 10q12 9 12 29v279h76z" />
    <glyph glyph-name="multiply" unicode="&#xd7;" horiz-adv-x="626" 
d="M465 305l-51 -43l-101 83l-101 -83l-51 43l101 82l-102 83l51 42l102 -83l102 83l51 -42l-102 -83z" />
    <glyph glyph-name="divide" unicode="&#xf7;" horiz-adv-x="676" 
d="M390 279q0 -21 -16 -31q-17 -11 -34 -11q-16 0 -33 11t-17 31q0 21 16 31q17 11 34 11q18 0 34 -10t16 -32zM390 492q0 -21 -16 -31q-16 -12 -34 -12q-16 0 -33 12q-17 11 -17 31q0 21 16 31q17 11 34 11t34 -11q16 -10 16 -31zM160 418h356v-61h-356v61z" />
    <glyph glyph-name="endash" unicode="&#x2013;" horiz-adv-x="676" 
d="M160 418h356v-61h-356v61z" />
    <glyph glyph-name="emdash" unicode="&#x2014;" horiz-adv-x="883" 
d="M160 418h563v-61h-563v61z" />
    <glyph glyph-name="quoteleft" unicode="&#x2018;" horiz-adv-x="378" 
d="M160 748v109h58v-109h-58z" />
    <glyph glyph-name="quoteright" unicode="&#x2019;" horiz-adv-x="378" 
d="M160 748v109h58v-109h-58z" />
    <glyph glyph-name="quotesinglbase" unicode="&#x201a;" horiz-adv-x="463" 
d="M191 -41l-31 -7l25 19q24 17 37 38q-8 5 -14 14q-7 8 -7 19q0 22 18 32q16 10 34 10t34 -10t16 -32q0 -17 -13 -30q-17 -17 -31 -25q-19 -11 -37 -18q-17 -6 -31 -10z" />
    <glyph glyph-name="quotedblbase" unicode="&#x201e;" horiz-adv-x="463" 
d="M191 -41l-31 -7l25 19q24 17 37 38q-8 5 -14 14q-7 8 -7 19q0 22 18 32q16 10 34 10t34 -10t16 -32q0 -17 -13 -30q-17 -17 -31 -25q-19 -11 -37 -18q-17 -6 -31 -10z" />
    <glyph glyph-name="ellipsis" unicode="&#x2026;" horiz-adv-x="420" 
d="M260 42q0 -21 -16 -31q-17 -11 -33 -11q-17 0 -34 11t-17 31q0 21 17 32q16 10 34 10t34 -10q15 -10 15 -32z" />
    <glyph glyph-name="guilsinglleft" unicode="&#x2039;" horiz-adv-x="495" 
d="M257 185l-97 160l97 160h77l-96 -160l97 -160h-78z" />
    <glyph glyph-name="guilsinglright" unicode="&#x203a;" horiz-adv-x="495" 
d="M238 505l97 -160l-97 -160h-77l96 160l-97 160h78z" />
    <glyph glyph-name="fraction" unicode="&#x2044;" horiz-adv-x="959" 
d="M160 0l563 801h76l-562 -801h-77z" />
    <glyph glyph-name="minus" unicode="&#x2212;" horiz-adv-x="676" 
d="M160 418h356v-61h-356v61z" />
    <glyph glyph-name="_FSHallmark" horiz-adv-x="754" 
d="M701 529h-630v74h630v-74zM619 388q0 14 -16.5 27t-38.5 13q-20 0 -36 -9.5t-16 -21.5q0 -17 9 -26.5t39 -17.5l27 -6q27 -6 37.5 -9t28.5 -9.5t25.5 -13.5t14 -18.5t7.5 -27.5q1 -42 -36.5 -68t-98.5 -26q-68 0 -103.5 34t-35.5 79l73 -1q0 -8 4 -18t21 -21.5t44 -11.5
q24 0 39.5 8.5t15.5 19.5q0 22 -60 36q-56 14 -92 33q-38 20 -38 63q0 41 37.5 67t94.5 26q60 0 95 -30.5t35 -70.5h-76zM305 277h-151v-102h-83v313h265v-71h-182v-70h151v-70zM329 213q0 15 11 26t27 11q17 0 29.5 -11t12.5 -26q0 -16 -12 -26t-30 -10q-16 0 -27 10.5
t-11 25.5zM700 61h-631v75h631v-75z" />
    <glyph glyph-name="_Fontastica" horiz-adv-x="754" 
d="M218 260v-147h-87q-1 1 -1 4v510h382v-78h-294v-210h295v-79h-295zM273 402v79h296v146h87v-513h-383v78h296v210h-296zM569 63q-11 -7 -1 -19q3 -4 9 -4q7 0 14 4l4 -4q-6 -9 -18 -9q-8 0 -16 5q-6 6 -6.5 16t5.5 17q8 8 17 8q10 0 18 -8l-4 -6q-10 5 -12 5h-2
q-6 -2 -8 -5zM131 32v44h32v-8h-21v-12h20v-7h-20v-17h-11zM203 76q15 0 22 -12q7 -8 1.5 -20t-18.5 -13q-4 -2 -6 -2q-6 0 -9 3q-14 6 -14 19q0 11 7 18t17 7zM288 76v-44q-2 0 -3.5 -0.5t-2.5 -0.5q-3 0 -7 5q-7 10 -17 23v-27h-10v44q10 0 13 -6l9 -12l9 -12v30h9z
M307 68v8h37v-8h-14v-36h-9v36h-14zM444 55q9 -1 9 -10q2 -8 -8 -13q-2 -1 -8 -1q-14 0 -21 7l3 6l14 -4h6l2 1q1 0 1 1q0 4 -2 5q-1 2 -8 4l-2 1q-3 1 -4 1q-7 2 -7 10q-1 7 6 11q3 2 10 2q11 0 18 -4l-4 -8q-2 1 -5.5 2.5t-4.5 1.5h-6q-3 0 -3 -3q-2 -2 3 -6q6 -1 11 -4z
M468 68v8h38v-8h-14v-36h-10v36h-14zM524 32v44h11v-44h-11zM640 76q2 -4 8 -19.5t11 -24.5h-10l-4 9h-21l-4 -9h-10q10 20 18 44h12zM382 74q9 -17 18 -42h-10l-3 9h-20q-2 -7 -4 -9h-9q5 13 18 42h10zM216 54q0 14 -12 14q-1 0 -2.5 -0.5t-2.5 -0.5q-15 -7 -9 -18
q3 -10 13 -10q3 0 4 1q9 2 9 13v1zM384 49q-6 9 -7 16l-8 -16h15zM641 49q-2 2 -3.5 8t-3.5 8l-7 -16h14z" />
  </font>
</defs>
</svg>
